<?xml version="1.0" encoding="UTF-8" standalone="no"?>
<!-- Created with Inkscape (http://www.inkscape.org/) -->

<svg
   version="1.1"
   id="svg1"
   width="200"
   height="200"
   viewBox="0 0 200 200"
   sodipodi:docname="favicon.svg"
   inkscape:version="1.3.2 (091e20ef0f, 2023-11-25, custom)"
   xmlns:inkscape="http://www.inkscape.org/namespaces/inkscape"
   xmlns:sodipodi="http://sodipodi.sourceforge.net/DTD/sodipodi-0.dtd"
   xmlns="http://www.w3.org/2000/svg"
   xmlns:svg="http://www.w3.org/2000/svg">
  <defs
     id="defs1">
    <rect
       x="19.0007"
       y="15.831001"
       width="125.45476"
       height="134.99981"
       id="rect2" />
    <rect
       x="30.558147"
       y="20.054998"
       width="98.395717"
       height="107.05846"
       id="rect1" />
  </defs>
  <sodipodi:namedview
     id="namedview1"
     pagecolor="#ffffff"
     bordercolor="#000000"
     borderopacity="0.25"
     inkscape:showpageshadow="2"
     inkscape:pageopacity="0.0"
     inkscape:pagecheckerboard="0"
     inkscape:deskcolor="#d1d1d1"
     inkscape:zoom="4.02"
     inkscape:cx="100"
     inkscape:cy="91.293532"
     inkscape:window-width="1920"
     inkscape:window-height="1008"
     inkscape:window-x="0"
     inkscape:window-y="0"
     inkscape:window-maximized="1"
     inkscape:current-layer="g1"
     showgrid="false" />
  <g
     inkscape:groupmode="layer"
     inkscape:label="Image"
     id="g1">
    <path
       style="fill:#aa0000"
       d="m 92.847486,168.74175 c -27.644741,-3.94311 -49.483837,-23.80744 -56.289653,-51.19977 -1.047377,-4.21552 -1.180171,-5.90334 -1.180171,-15 0,-9.096664 0.132794,-10.784474 1.180171,-15.000004 6.267912,-25.227345 24.812301,-43.771734 50.039653,-50.039646 4.21552,-1.047377 5.90334,-1.180171 15.000004,-1.180171 9.09665,0 10.78447,0.132794 14.99999,1.180171 25.22735,6.267912 43.77174,24.812301 50.03965,50.039646 1.04738,4.21553 1.18017,5.90334 1.18017,15.000004 0,9.09666 -0.13279,10.78448 -1.18017,15 -4.79451,19.29712 -17.1662,35.27654 -34.03965,43.96599 -10.69056,5.5054 -16.94572,7.06339 -29.24999,7.28536 -4.950004,0.0893 -9.675004,0.0661 -10.500004,-0.0516 z m 16.032824,-10.73598 c 24.99177,-3.47603 44.70493,-23.18918 48.18096,-48.18095 2.34785,-16.880394 -3.63933,-34.337174 -16.0244,-46.722236 -21.97447,-21.974477 -56.904304,-21.974477 -78.878783,0 -21.974477,21.974472 -21.974477,56.904316 0,78.878796 12.372619,12.37261 29.858809,18.36988 46.722223,16.02439 z M 98.097486,145.04198 c 0,-1.44444 0.20833,-2 0.75,-2 1.12267,0 1.08046,-6.2662 -0.0451,-6.69812 -0.43732,-0.16782 -1.01684,-0.16809 -1.28783,-6.1e-4 -0.27099,0.16748 -1.71318,0.15202 -3.20488,-0.0344 l -2.71217,-0.33886 v -1.94618 -1.94618 l 3.79567,0.0198 c 2.08762,0.0109 3.93735,-0.12187 4.11052,-0.29503 0.516934,-0.51693 -1.0843,-1.26004 -2.06026,-0.95614 -0.49724,0.15483 -2.01599,0.12858 -3.375,-0.0583 l -2.47093,-0.33984 v -1.99901 -1.99901 l 2.375,0.12801 c 1.30625,0.0704 3.10625,0.0911 4,0.0459 l 1.625,-0.0821 v -9.62125 -9.62125 l -12.50489,12.49632 c -7.99145,7.98594 -12.40727,12.75122 -12.23445,13.20266 0.14874,0.38853 -0.34428,1.34804 -1.0956,2.13224 l -1.36602,1.42583 -2.3953,-2.35929 -2.3953,-2.35928 1.34226,-1.40102 c 0.76771,-0.80131 1.67868,-1.29426 2.12817,-1.15159 0.53102,0.16854 4.83611,-3.80322 13.27476,-12.24693 l 12.48886,-12.49637 h -6.81704 c -6.76973,0 -6.81913,0.008 -7.11679,1.19429 -0.16487,0.65686 -1.08445,1.88327 -2.04352,2.72534 -3.08712,2.71053 -7.44317,2.71053 -10.53029,0 -0.95907,-0.84207 -1.87865,-2.06848 -2.04351,-2.72534 -0.27973,-1.11452 -0.52989,-1.19429 -3.745549,-1.19429 -2.729597,0 -3.445796,0.15589 -3.445796,0.75 0,0.54167 -0.555556,0.75 -2,0.75 h -2 v -3.5 -3.500004 h 2 c 1.444444,0 2,0.20834 2,0.75 0,0.594124 0.716199,0.750004 3.445796,0.750004 3.215659,0 3.465819,-0.0798 3.745549,-1.194294 0.16486,-0.65686 1.08444,-1.88326 2.04351,-2.72534 3.08712,-2.71053 7.44317,-2.71053 10.53029,0 0.95907,0.84208 1.87865,2.06848 2.04352,2.72534 0.29766,1.186004 0.34706,1.194294 7.11679,1.194294 h 6.81704 L 84.351136,88.045616 c -8.43865,-8.44372 -12.74374,-12.41547 -13.27476,-12.24693 -0.44949,0.14266 -1.36046,-0.35028 -2.12817,-1.15159 l -1.34226,-1.40102 2.3953,-2.35929 2.3953,-2.359281 1.36602,1.425821 c 0.75132,0.78421 1.24434,1.74371 1.0956,2.13224 -0.17282,0.45144 4.243,5.21672 12.23445,13.20266 l 12.50489,12.49625 v -2.37125 -2.37125 h -1.75 c -1.70834,0 -1.75,-0.0476 -1.75,-2 0,-1.95238 0.0417,-2 1.75,-2 2.348874,0 2.289634,-1.1233 -0.125,-2.37018 -2.74023,-1.41502 -4.21503,-4.20498 -3.97808,-7.52555 0.2199,-3.08175 1.3601,-4.88008 4.06612,-6.41313 l 1.86902,-1.05886 -1.84974,-1.1432 c -2.36197,-1.45978 -4.22062,-5.27456 -4.22744,-8.676578 l -0.005,-2.4375 1.5625,0.3125 c 0.85937,0.171875 1.75937,0.3125 2,0.3125 0.24062,0 0.4375,0.682226 0.4375,1.516059 0,1.511642 1.20144,4.983941 1.72449,4.983941 0.15153,0 0.27551,-1.0125 0.27551,-2.25 0,-1.666667 -0.19445,-2.25 -0.75,-2.25 -0.54167,0 -0.75,-0.555556 -0.75,-2 v -2 h 3.500004 3.5 v 2 c 0,1.444444 -0.20833,2 -0.75,2 -0.55556,0 -0.75,0.583333 -0.75,2.25 0,1.2375 0.12398,2.25 0.27551,2.25 0.51268,0 1.72449,-3.458336 1.72449,-4.921441 0,-1.227986 0.24248,-1.502055 1.5625,-1.766059 2.41298,-0.482597 2.43781,-0.461551 2.43262,2.0625 -0.007,3.336847 -1.88678,7.167468 -4.22745,8.614078 l -1.84973,1.1432 1.86902,1.05886 c 2.70602,1.53305 3.84622,3.33138 4.06612,6.41313 0.23694,3.32057 -1.23786,6.11053 -3.97808,7.52555 -2.41464,1.24688 -2.47388,2.37018 -0.125,2.37018 1.70833,0 1.75,0.0476 1.75,2 0,1.95238 -0.0417,2 -1.75,2 h -1.75 v 2.37125 2.37125 l 12.50496,-12.49625 c 7.99145,-7.98594 12.40728,-12.75122 12.23445,-13.20266 -0.14873,-0.38853 0.34429,-1.34803 1.0956,-2.13224 l 1.36603,-1.425821 2.3953,2.359281 2.3953,2.35929 -1.34227,1.40102 c -0.7677,0.80131 -1.67867,1.29425 -2.12816,1.15159 -0.53103,-0.16854 -4.83612,3.80321 -13.27476,12.24693 l -12.48887,12.496364 h 3.87125 3.87125 v -1.750004 c 0,-1.70833 0.0476,-1.75 2,-1.75 1.95238,0 2,0.0417 2,1.75 0,1.222224 0.22619,1.750004 0.75,1.750004 0.61889,0 0.75,-0.914684 0.75,-5.232104 v -5.23209 l 8.00396,5.23209 8.00397,5.232104 h 3.24603 c 2.55204,0 3.24604,-0.16035 3.24604,-0.750004 0,-0.54166 0.55556,-0.75 2,-0.75 h 2 v 3.500004 3.5 h -2 c -1.44444,0 -2,-0.20833 -2,-0.75 0,-0.58965 -0.694,-0.75 -3.24604,-0.75 h -3.24603 l -8.00397,5.2321 -8.00396,5.2321 v -5.2321 c 0,-4.31742 -0.13111,-5.2321 -0.75,-5.2321 -0.52381,0 -0.75,0.52778 -0.75,1.75 0,1.70834 -0.0476,1.75 -2,1.75 -1.95238,0 -2,-0.0417 -2,-1.75 v -1.75 h -3.87125 -3.87125 l 12.49625,12.50488 c 7.98594,7.99146 12.75122,12.40728 13.20266,12.23446 0.38853,-0.14874 1.34804,0.34428 2.13224,1.09559 l 1.42582,1.36603 -2.35928,2.3953 -2.35928,2.3953 -1.40103,-1.34227 c -0.80131,-0.7677 -1.29425,-1.67867 -1.15159,-2.12816 0.16856,-0.53108 -3.80511,-4.83639 -12.25567,-13.27851 l -12.5051,-12.49262 0.13374,9.75 0.13374,9.75 1.25,-0.10995 c 0.6875,-0.0605 2.43125,0.012 3.875,0.16098 l 2.625,0.27093 v 1.94618 1.94618 l -3.79567,-0.0198 c -2.08762,-0.0109 -3.93736,0.12186 -4.11052,0.29503 -0.51693,0.51693 1.08429,1.26003 2.06026,0.95614 0.49724,-0.15483 2.01599,-0.12858 3.375,0.0583 l 2.47093,0.33984 v 1.99901 1.99901 l -2.375,-0.128 c -1.30625,-0.0704 -3.10625,-0.0911 -4,-0.0459 l -1.625,0.0821 v 3.25 c 0,2.55556 0.16026,3.25 0.75,3.25 0.54167,0 0.75,0.55556 0.75,2 v 2 h -3.5 -3.500004 z M 125.91346,106.0012 c 0.92621,-0.57243 1.68402,-1.13493 1.68402,-1.25 0,-0.11507 -0.9,-0.20922 -2,-0.20922 -1.8,0 -2,0.125 -2,1.25 0,1.51668 0.17491,1.53248 2.31598,0.20922 z m -48.589504,-0.0395 c 2.06166,-0.93936 1.47749,-1.41975 -1.72647,-1.41975 -3.13759,0 -3.7758,0.47304 -1.875,1.38976 1.48797,0.71762 2.08144,0.72256 3.60147,0.03 z m 1.27353,-5.85909 c 0,-0.241634 -0.675,-0.718934 -1.5,-1.060664 -1.19527,-0.49509 -1.80474,-0.49509 -3,0 -2.32379,0.962544 -1.78633,1.500004 1.5,1.500004 1.65,0 3,-0.1977 3,-0.43934 z m 48.999994,0.23012 c 0,-0.26438 -3.25883,-2.290784 -3.68402,-2.290784 -0.17379,0 -0.31598,0.5625 -0.31598,1.25 0,1.125004 0.2,1.250004 2,1.250004 1.1,0 2,-0.0942 2,-0.20922 z m -28.016634,-20.665784 -0.0166,-3.375 -0.98336,1.18039 c -0.54086,0.64922 -0.98337,1.66791 -0.98337,2.26375 0,0.98745 1.24716,3.30586 1.77835,3.30586 0.12191,0 0.21416,-1.51875 0.20502,-3.375 z m 6.016644,0.125 c 0,-0.62657 -0.44252,-1.67039 -0.98337,-2.31961 l -0.98337,-1.18036 v 3.5 3.5 l 0.98337,-1.18039 c 0.54085,-0.64922 0.98337,-1.69304 0.98337,-2.31961 z"
       id="path1" />
    <text
       xml:space="preserve"
       id="text1"
       style="font-weight:900;font-size:96px;font-family:'Noto Sans Armenian';-inkscape-font-specification:'Noto Sans Armenian Heavy';text-align:center;white-space:pre;shape-inside:url(#rect1);fill:#aa0000" />
    <text
       xml:space="preserve"
       id="text2"
       style="font-weight:900;font-size:120px;font-family:'Noto Sans Armenian';-inkscape-font-specification:'Noto Sans Armenian Heavy';text-align:center;white-space:pre;shape-inside:url(#rect2);fill:#aa0000"><tspan
         x="19"
         y="260.06537"
         id="tspan6"><tspan
           style="font-weight:normal;font-family:C059;-inkscape-font-specification:C059;fill:#1a1a1a"
           id="tspan1">s</tspan></tspan></text>
    <text
       xml:space="preserve"
       style="font-style:normal;font-variant:normal;font-weight:normal;font-stretch:normal;font-size:113.333px;font-family:C059;-inkscape-font-specification:C059;text-align:center;text-anchor:middle;fill:#1a1a1a"
       x="55.759289"
       y="103.85184"
       id="text3"><tspan
         sodipodi:role="line"
         id="tspan3"
         x="55.759289"
         y="103.85184"
         style="font-style:normal;font-variant:normal;font-weight:normal;font-stretch:normal;font-family:D050000L;-inkscape-font-specification:D050000L">s</tspan></text>
    <text
       xml:space="preserve"
       style="font-style:normal;font-variant:normal;font-weight:normal;font-stretch:normal;font-size:113.333px;font-family:C059;-inkscape-font-specification:C059;text-align:center;text-anchor:middle;fill:#1a1a1a"
       x="-146.62201"
       y="-101.86945"
       id="text3-0"
       transform="scale(-1)"><tspan
         sodipodi:role="line"
         id="tspan3-3"
         x="-146.62201"
         y="-101.86945"
         style="font-style:normal;font-variant:normal;font-weight:normal;font-stretch:normal;font-family:D050000L;-inkscape-font-specification:D050000L">s</tspan></text>
    <text
       xml:space="preserve"
       style="font-style:normal;font-variant:normal;font-weight:normal;font-stretch:normal;font-size:113.333px;font-family:'DejaVu Math TeX Gyre';-inkscape-font-specification:'DejaVu Math TeX Gyre';text-align:center;text-anchor:middle;fill:#d40000"
       x="53.211483"
       y="100.63647"
       id="text4"><tspan
         sodipodi:role="line"
         id="tspan4"
         x="53.211483"
         y="100.63647"
         style="fill:#d40000">s</tspan></text>
    <text
       xml:space="preserve"
       style="font-style:normal;font-variant:normal;font-weight:normal;font-stretch:normal;font-size:69.1404px;font-family:'Alfa Slab One';-inkscape-font-specification:'Alfa Slab One';text-align:center;text-anchor:middle;fill:#d40000;stroke-width:0.610065"
       x="148.93069"
       y="160.43869"
       id="text5"
       transform="scale(0.97401221,1.0266812)"><tspan
         sodipodi:role="line"
         id="tspan5"
         x="148.93069"
         y="160.43869"
         style="stroke-width:0.610065">D</tspan></text>
  </g>
</svg>
